<svg xmlns="http://www.w3.org/2000/svg" xmlns:xlink="http://www.w3.org/1999/xlink" viewBox="0 0 81.89 81.89"><defs><style>.cls-1{fill:none;}.cls-2{fill:url(#Degradado_sin_nombre_25);}.cls-3{fill:url(#Degradado_sin_nombre_262);}.cls-4{fill:url(#Degradado_sin_nombre_260);}.cls-5{opacity:0.78;fill:url(#Degradado_sin_nombre_1766);}</style><linearGradient id="Degradado_sin_nombre_25" x1="44.49" y1="35.34" x2="24.87" y2="65.76" gradientTransform="translate(0 81.89) rotate(-90)" gradientUnits="userSpaceOnUse"><stop offset="0.16" stop-color="#686f9f"/><stop offset="0.29" stop-color="#6a67a3"/><stop offset="0.49" stop-color="#7051ae"/><stop offset="0.74" stop-color="#792cc1"/><stop offset="1" stop-color="#8400d7"/></linearGradient><linearGradient id="Degradado_sin_nombre_262" x1="18.29" y1="62.08" x2="35.65" y2="28.12" gradientTransform="translate(0 81.89) rotate(-90)" gradientUnits="userSpaceOnUse"><stop offset="0.05" stop-color="#846fde"/><stop offset="0.23" stop-color="#8c60d0"/><stop offset="0.58" stop-color="#a137ab"/><stop offset="0.99" stop-color="#bd0079"/></linearGradient><linearGradient id="Degradado_sin_nombre_260" x1="49.45" y1="-5.7" x2="66.99" y2="107.89" gradientTransform="translate(0 81.89) rotate(-90)" gradientUnits="userSpaceOnUse"><stop offset="0" stop-color="#ff0059"/><stop offset="1" stop-color="#e27a2c"/></linearGradient><linearGradient id="Degradado_sin_nombre_1766" x1="32.29" y1="-3.05" x2="49.84" y2="110.53" gradientTransform="translate(0 81.89) rotate(-90)" gradientUnits="userSpaceOnUse"><stop offset="0" stop-color="#db0093"/><stop offset="0.01" stop-color="#da0093" stop-opacity="0"/><stop offset="1" stop-color="#554b9b"/></linearGradient></defs><title>sample logo</title><g id="Objects"><path class="cls-1" d="M36.18,25.8a11.07,11.07,0,0,1,1.13-.11l.23,0,.22,0H38l.23,0h.45l.23,0h3.82a1.2,1.2,0,0,1-.19,0H38.78l-.19,0h-.44l-.19,0-.19,0-.19,0-.19,0-.18,0-.19,0-.19,0-.18,0a1,1,0,0,0-.17,0h0l-.19,0-.18,0-.18,0-.14,0,.21,0Z"/><path class="cls-2" d="M64.94,34.33H42.72a8.12,8.12,0,0,0-6.22,13A8.28,8.28,0,0,0,37.59,49a9.53,9.53,0,0,0,.89.68A8,8,0,0,0,42.82,51h13.7a.08.08,0,0,1,0,0l-.07.15-.07.15s0,.09-.07.14l-.08.13-.08.15c0,.05-.05.1-.08.14L56,52.3l-.08.14-.09.14a1,1,0,0,0-.08.14l-.09.14-.07.1-.09.13-.09.13-.1.14-.1.13a1.13,1.13,0,0,1-.1.13.64.64,0,0,1-.1.13.64.64,0,0,1-.1.13,1.47,1.47,0,0,1-.1.13.27.27,0,0,1-.07.08h0l-.09.1,0,0-.08.1,0,0a.27.27,0,0,0-.07.08s0,0,0,0l-.06.07-.06.06a.18.18,0,0,0,0,.07l-.07.06,0,.06a.46.46,0,0,0-.07.07l0,0-.08.08,0,0-.1.09,0,0-.06.06a1.14,1.14,0,0,1-.11.11l-.12.12-.12.11a.69.69,0,0,0-.13.11l-.12.11-.12.11a.69.69,0,0,0-.13.11l-.12.1-.13.11-.09.07-.11.09-.13.1-.14.1-.09.07,0,0-.13.1-.14.1-.13.09-.14.1-.14.09-.13.1-.1.06-.13.08-.15.09-.14.09-.14.08-.15.09-.14.08-.15.09-.14.08-.15.08-.15.08-.12.06-.13.07-.15.08-.15.07-.16.07-.15.07-.15.07-.16.07-.15.07-.16.07-.15.07-.16.06-.12,0-.15.06-.16.06-.16.06-.16.06-.16.06-.16,0-.16.06-.17,0-.16,0-.16.06-.17,0-.12,0-.16.05-.17,0-.17,0-.16,0-.17,0-.17,0-.16,0-.17,0-.17,0-.17,0-.17,0-.13,0-.16,0-.18,0-.16,0-.17,0-.18,0-.17,0-.17,0-.17,0-.17,0-.17,0-.18,0h-.14l-.16,0h-3.6l-.17,0H37.6l-.18,0-.17,0-.17,0-.17,0-.18,0-.17,0-.17,0h0v0l.11,0,.21,0,.2.05.17,0,.2,0,.21,0,.21,0,.21,0,.21,0,.21,0,.21,0,.21,0,.21,0,.21,0,.21,0,.17,0,.2,0,.22,0,.21,0,.21,0h.22l.21,0,.21,0h3.56l.2,0L45,61h.22l.21,0,.22,0,.21,0,.22,0,.21,0,.21,0,.22,0,.21,0,.16,0,.2,0,.22,0,.21,0,.21,0,.21,0,.21-.05.21,0,.21,0,.21-.05.21,0,.19,0,.16,0,.21-.06.21-.06.2-.06.21-.06.21-.06.2-.06.21-.07.21-.06.2-.07.19-.07.13,0,.21-.08.2-.08.2-.08.2-.08.2-.08.2-.08.2-.09.2-.08.2-.09.17-.08.13-.06.19-.09.2-.1.19-.1.19-.1.2-.1.19-.1.19-.11.19-.1.19-.11.09-.05.18-.11.19-.12.18-.11.18-.12.19-.12.18-.12.18-.12.18-.13.18-.12.1-.07.09-.07.06,0,.18-.13a1.09,1.09,0,0,1,.17-.13L58,56.1l.17-.14.17-.14.17-.14.17-.14a1.07,1.07,0,0,0,.16-.14l.17-.14s0,0,0,0h0l.14-.12,0,0,.13-.12,0,0,.12-.1.05-.06.1-.09.06-.07.1-.08.06-.08.09-.07.08-.09a.6.6,0,0,0,.08-.08.94.94,0,0,0,.1-.1l.07-.06.11-.12.06,0,.12-.14,0,0,.14-.15h0l.12-.13.15-.17.15-.18.15-.17.15-.18c0-.06.09-.12.14-.17l.15-.18.14-.18L62.1,52l.12-.15.09-.12c0-.07.09-.12.13-.18a1.27,1.27,0,0,1,.13-.19l.12-.18.12-.18.13-.18.12-.19a1.88,1.88,0,0,1,.12-.18l.11-.19.06-.09.1-.18a1.74,1.74,0,0,1,.11-.18c0-.07.07-.13.1-.19l.11-.19a1.74,1.74,0,0,1,.1-.19L64,49l.09-.19a1.14,1.14,0,0,0,.1-.19,1.51,1.51,0,0,1,.09-.18l0-.08.09-.19a1.54,1.54,0,0,0,.08-.19l.09-.19a1.67,1.67,0,0,1,.08-.2h0l.08-.18.07-.19.08-.2.07-.19,0-.08L65,46.6l.06-.2c0-.07.05-.13.07-.2L65.2,46l.06-.2.06-.2a1.94,1.94,0,0,1,.05-.2l.06-.19c0-.07,0-.14,0-.2s0,0,0-.05a1.46,1.46,0,0,1,.05-.2,1.77,1.77,0,0,1,0-.2c0-.06,0-.13,0-.19s0-.14,0-.21,0-.13,0-.19a1.55,1.55,0,0,1,0-.21l0-.2a1.77,1.77,0,0,1,0-.2,1.25,1.25,0,0,1,0-.19v0l0-.21a1.5,1.5,0,0,1,0-.2,1.23,1.23,0,0,0,0-.2,1.36,1.36,0,0,0,0-.2c0-.07,0-.13,0-.2s0-.14,0-.2,0-.14,0-.2,0-.14,0-.21a1.41,1.41,0,0,1,0-.2v0c0-.07,0-.13,0-.19V39.88c0-.07,0-.14,0-.21s0-.13,0-.2v-.23a1.41,1.41,0,0,0,0-.2c0-.06,0-.13,0-.2s0-.13,0-.2a1.23,1.23,0,0,0,0-.2,2857076391467.29,2857076391467.29,0,0,0,0-.4,1.49,1.49,0,0,1,0-.21l0-.2,0-.2c0-.06,0-.13,0-.2v0l0-.18c0-.07,0-.13,0-.2a1.42,1.42,0,0,0,0-.2,2713920463252.94,2713920463252.94,0,0,0-.08-.4,1.77,1.77,0,0,0,0-.2c0-.06,0-.13,0-.19s0-.14,0-.2,0-.13,0-.2a30827137529805.28,30827137529805.28,0,0,0-.1-.4v0c0-.06,0-.13,0-.19l-.06-.19,0-.2,0-.1Z"/><path class="cls-3" d="M35.74,25.84l-.22,0-.22,0-.22,0a1.46,1.46,0,0,0-.22,0l-.22,0-.22,0-.22,0-.22,0-.21,0-.22,0-.21,0a9.9,9.9,0,0,0-1.11.21l-.22,0-.21,0-.21.05-.21,0-.21.05-.21.05-.21.05-.21.05-.21,0-.2.06-.21.05-.2.06a9.55,9.55,0,0,0-1.08.3l-.21.06-.2.06-.2.06-.2.06-.2.07-.2.06-.2.07-.2.07-.2.06-.19.07-.2.07-.19.08-.2.07c-.35.12-.7.25-1,.4l-.19.08-.19.07-.2.08-.19.08-.18.08-.19.08-.19.08-.19.09-.18.08-.19.09-.18.08-.19.09-.18.09-.18.09c-.34.15-.67.32-1,.5l-.1.05-.08,0L21,30.4l-.17.1-.18.09-.18.1a1,1,0,0,0-.17.1l-.18.1A1,1,0,0,0,20,31l-.18.1-.17.1-.17.1-.17.1-.17.11a10.63,10.63,0,0,0-.95.59l-.16.1-.17.11-.17.11-.16.11-.17.11-.16.11-.16.11-.16.12a.91.91,0,0,0-.16.11l-.16.11-.16.12-.16.12a.91.91,0,0,0-.16.11l-.16.12-.15.12c-.31.21-.6.44-.89.68l-.15.13a1.58,1.58,0,0,0-.15.12l-.15.12-.15.12-.15.13L14,35.2l-.15.13-.15.13-.15.12a.86.86,0,0,1-.14.13l-.15.13-.14.13-.14.13-.14.13-.15.14a9.74,9.74,0,0,0-.81.77h0l-.13.12v0l-.12.11,0,0a1.14,1.14,0,0,1-.11.11l0,0-.11.09,0,0-.1.09a.1.1,0,0,1,0,0,.6.6,0,0,1-.08.08L11,38l-.08.07,0,.07-.07.06-.07.08-.06.06-.07.08,0,0-.08.09,0,0-.09.1,0,0a.81.81,0,0,1-.09.1l0,0-.09.11,0,0-.1.12h0l-.11.13h0c-.25.27-.49.55-.71.84a.81.81,0,0,0-.12.14l-.13.15-.12.14-.12.15-.12.15L8.4,41l-.12.15-.11.15-.12.15-.11.15-.12.15-.11.16L7.6,42l-.12.15-.11.16-.11.15c-.22.29-.42.59-.61.89l-.11.16-.1.15-.11.16-.1.16s-.07.1-.1.16L6,44.32l-.1.16-.1.16-.1.16L5.63,45a1.4,1.4,0,0,0-.1.16,1.4,1.4,0,0,1-.1.16l-.09.17s-.06.1-.1.16l-.09.16-.09.17A1.29,1.29,0,0,0,5,46.1a9.27,9.27,0,0,0-.51.92l-.09.17c0,.06-.06.11-.08.17l-.09.16-.09.17a1.3,1.3,0,0,1-.08.17A.89.89,0,0,0,4,48l-.09.17a1.19,1.19,0,0,1-.08.16c0,.06,0,.12-.08.17s-.05.12-.08.17-.05.12-.08.17,0,.12-.08.17l-.07.18c0,.05-.05.11-.08.17a.87.87,0,0,0-.07.17c0,.06-.05.12-.08.17a8.62,8.62,0,0,0-.39,1,1.34,1.34,0,0,0-.07.18.87.87,0,0,0-.07.17,1.22,1.22,0,0,0-.07.17l-.07.18c0,.06-.05.11-.07.17l-.06.18c0,.06,0,.11-.07.17l-.06.18-.06.17-.06.18a1.27,1.27,0,0,0-.06.18,1.77,1.77,0,0,0-.06.17,1.27,1.27,0,0,0-.06.18l-.06.18-.06.18c0,.06,0,.12-.05.18l0,.1a3.22,3.22,0,0,0,.14.44l.06.19.06.18.06.18a1.34,1.34,0,0,0,.07.18l.06.17a1.34,1.34,0,0,1,.07.18,1.34,1.34,0,0,0,.07.18,1.34,1.34,0,0,0,.07.18l.07.18.07.18L2.6,56l.08.18.09.21c.11.3.24.58.38.87,0,0,.05.11.08.17l.08.18c0,.06,0,.12.08.17a1.42,1.42,0,0,1,.08.18l.09.17.09.18a1.3,1.3,0,0,0,.08.17l.09.18.09.17L4,59l.1.18a1.4,1.4,0,0,0,.09.17q.22.43.48.87a1,1,0,0,1,.1.17,1,1,0,0,1,.1.17l.1.17a1,1,0,0,1,.1.17s.07.11.11.17l.1.17.11.16.1.17.11.17.11.17.11.16.11.17.12.17c.17.28.37.55.57.82l.12.16.12.17.12.16.12.16.12.16.13.17.12.16.13.16.13.16a1.83,1.83,0,0,0,.13.16L8,65s.09.1.13.16l.14.16a9.3,9.3,0,0,0,.66.77l.14.15.14.16.14.15.14.16.14.15.15.15a1.07,1.07,0,0,0,.14.16l.15.15.15.15.15.15.15.15.15.15.16.15a8.27,8.27,0,0,0,.74.71h0l.14.13h0l.13.13,0,0,.12.11,0,0a1.14,1.14,0,0,0,.11.11l.05,0,.1.1.06,0,.09.09.08.06.08.07.08.07.08.07.09.07.06.06.11.08s0,0,.05,0l.12.1,0,0,.13.11s0,0,0,0l.13.11h0l.14.11h0a9.65,9.65,0,0,0,.81.62l.16.12.15.12.16.12.16.12c.06,0,.11.08.16.11l.16.12.16.11.16.11.16.12.17.11.16.11.17.11.17.11.17.12L17,73c.28.19.57.37.86.54l.18.1.17.11.18.11.17.1.18.1.18.1.18.1.17.1.18.1.18.1.18.09.18.1.18.09c.3.16.59.31.9.44l.18.09a1.51,1.51,0,0,0,.18.09l.18.09.19.08.18.09.19.08.18.08.19.09.18.07.19.08.18.08.19.08.19.07.18.08c.31.13.61.24.92.35l.19.07.19.07.19.06.19.07.19.07.19.06.19.06.19.06.08,0,.11,0,.19,0a1.39,1.39,0,0,0,.19.06l.19.06.2.06.42.12c.23.07.47.14.7.19l.2,0,.19.05.19,0,.2,0,.19,0,.2,0,.19,0,.19,0,.2,0,.19,0,.2,0,.2,0,.19,0,.2,0c.31.07.62.12.94.16l.2,0,.19,0,.2,0,.2,0,.19,0,.2,0,.2,0,.19,0,.2,0,.2,0L34,79l.2,0,.2,0,.2,0c.31,0,.63.06.94.08h.2l.2,0h2.56c.32,0,.63,0,.95,0h2l.2,0h.19l.2,0,.2,0a7.32,7.32,0,0,0,.93-.09l.19,0,.2,0,.19,0,.19,0,.2,0,.19,0,.2,0,.19,0,.19,0,.2,0,.19,0,.19,0,.2,0,.19,0,.19,0a9.12,9.12,0,0,0,.91-.17l.19,0,.19,0,.2,0,.18,0,.2,0,.18,0,.19,0,.19-.05.19,0,.19,0,.19,0,.19-.05.18,0,.19,0,.19,0,.19-.06.4-.12.3-.08.18-.06.19-.06.18,0,.18-.06.19-.06.18-.06.19-.06L52.1,77l.18-.06.18-.06.18-.07.19-.07.18-.07.18-.06.18-.07.17-.07.13-.06a5.25,5.25,0,0,0,.55-.22l.18-.07.18-.07.17-.08.17-.07h0l.18-.08.17-.08.18-.07.17-.08.18-.08.17-.09.17-.08.17-.08.18-.09.17-.08.17-.09a9.06,9.06,0,0,0,.82-.42l.16-.09.17-.09.17-.09.17-.09.16-.1.17-.09.16-.1.17-.09.16-.1.17-.1.16-.1.16-.09.16-.11.16-.1.16-.1a7.94,7.94,0,0,0,.78-.5l.15-.11.16-.11.16-.1.15-.11.16-.11.15-.11.16-.11.15-.11.15-.12.15-.11.15-.12.15-.11.15-.12.15-.12,0,0c.18-.14.37-.28.55-.44l.14-.12.15-.12.14-.12.15-.12.14-.13.14-.12.14-.12.15-.13.14-.13.14-.13.13-.12.14-.13.14-.13.13-.14a8.2,8.2,0,0,0,.67-.65h0l.12-.11v0l.12-.11,0,0,.1-.11,0,0,.09-.09,0,0,.08-.08s0,0,0,0l.07-.08.06-.06.06-.07.06-.07.06-.06.07-.08,0,0,.08-.09a.08.08,0,0,1,0,0l.08-.11,0,0,.09-.11,0,0,.1-.13h0l.11-.13h0a8.06,8.06,0,0,0,.59-.72l.12-.15.12-.14.12-.15.11-.15.12-.16.11-.15.11-.15.11-.15.11-.16.11-.15.11-.16.11-.16a8.88,8.88,0,0,0,.5-.75l.11-.16c0-.06.07-.11.1-.16l.1-.17.11-.16.09-.16.1-.17a1.4,1.4,0,0,0,.1-.16l.1-.17.09-.16.1-.17.09-.17.09-.17A8.56,8.56,0,0,0,72,60.3l.09-.17c0-.06.06-.11.08-.17l.09-.18a.89.89,0,0,0,.08-.17l.09-.17.08-.18a1.42,1.42,0,0,0,.08-.18,1.42,1.42,0,0,0,.08-.18l0,0,.06-.15s0-.11.08-.17,0-.13.08-.19a1.34,1.34,0,0,1,.07-.18q.18-.39.33-.81l.07-.18c0-.06.05-.12.07-.19l.07-.18.06-.19a1.34,1.34,0,0,0,.07-.18,1.07,1.07,0,0,1,.07-.19l.06-.19.06-.19.06-.19.06-.19.06-.19a6.48,6.48,0,0,0,.24-.83l.06-.2a1.33,1.33,0,0,1,0-.19,1.46,1.46,0,0,0,0-.2,1.33,1.33,0,0,0,0-.19l0-.2c0-.07,0-.13.05-.2s0-.13,0-.2,0-.13,0-.2,0-.13,0-.2a1.18,1.18,0,0,0,0-.2,1.42,1.42,0,0,0,0-.2,8.28,8.28,0,0,0,.16-.84c0-.07,0-.14,0-.2l0-.21,0-.21c0-.06,0-.13,0-.2l0-.21a1.49,1.49,0,0,0,0-.21l0-.21,0-.21c0-.07,0-.14,0-.21a1.49,1.49,0,0,0,0-.21l0-.21a7.93,7.93,0,0,0,.07-.84,1.8,1.8,0,0,0,0-.22c0-.07,0-.14,0-.21s0-.14,0-.22,0-.14,0-.21,0-.15,0-.22,0-.14,0-.22a1.7,1.7,0,0,1,0-.22V46.6c0-.08,0-.15,0-.22v-.45a7.85,7.85,0,0,0,0-.84,1.62,1.62,0,0,0,0-.22v-.22a1.77,1.77,0,0,1,0-.23,1.62,1.62,0,0,0,0-.22,1.77,1.77,0,0,0,0-.23c0-.08,0-.15,0-.23s0-.15,0-.22,0-.16,0-.23a1.79,1.79,0,0,0,0-.23c0-.08,0-.15,0-.23a1.79,1.79,0,0,1,0-.23A8.56,8.56,0,0,0,75,40.94a8.41,8.41,0,0,0-2.67-4.47,8.7,8.7,0,0,0-6.29-2.16h-.94l0,.1,0,.2.06.19c0,.06,0,.13,0,.19v0a30827137529805.28,30827137529805.28,0,0,1,.1.4c0,.07,0,.13,0,.2s0,.13,0,.2,0,.13,0,.19a2713920463252.92,2713920463252.92,0,0,0,.08.4,1.77,1.77,0,0,1,0,.2,1.42,1.42,0,0,1,0,.2c0,.07,0,.13,0,.2l0,.18v0c0,.07,0,.14,0,.2l0,.2,0,.2a1.49,1.49,0,0,0,0,.21,2857076391467.29,2857076391467.29,0,0,1,0,.4,1.23,1.23,0,0,1,0,.2c0,.07,0,.13,0,.2s0,.14,0,.2a1.41,1.41,0,0,1,0,.2v.23c0,.07,0,.14,0,.2s0,.14,0,.21v1.21c0,.06,0,.12,0,.19v0a1.41,1.41,0,0,0,0,.2c0,.07,0,.14,0,.21s0,.13,0,.2,0,.13,0,.2,0,.13,0,.2a1.36,1.36,0,0,1,0,.2,1.23,1.23,0,0,1,0,.2,1.5,1.5,0,0,0,0,.2l0,.21v0a1.25,1.25,0,0,0,0,.19,1.77,1.77,0,0,0,0,.2l0,.2a1.55,1.55,0,0,0,0,.21c0,.06,0,.13,0,.19s0,.14,0,.21,0,.13,0,.19a1.77,1.77,0,0,0,0,.2,1.46,1.46,0,0,0-.05.2s0,0,0,.05,0,.13,0,.2l-.06.19a1.94,1.94,0,0,0-.05.2l-.06.2-.06.2-.06.19c0,.07,0,.13-.07.2l-.06.2-.06.17,0,.08-.07.19-.08.2-.07.19-.08.18h0a1.67,1.67,0,0,0-.08.2l-.09.19a1.54,1.54,0,0,1-.08.19l-.09.19,0,.08a1.51,1.51,0,0,0-.09.18,1.14,1.14,0,0,1-.1.19L64,49l-.1.19a1.74,1.74,0,0,0-.1.19l-.11.19c0,.06-.07.12-.1.19a1.74,1.74,0,0,0-.11.18l-.1.18-.06.09-.11.19a1.88,1.88,0,0,0-.12.18l-.12.19-.13.18-.12.18-.12.18a1.27,1.27,0,0,0-.13.19c0,.06-.09.11-.13.18l-.09.12L62.1,52l-.14.18-.14.18-.15.18c-.05,0-.09.11-.14.17l-.15.18-.15.17-.15.18-.15.17-.12.13h0l-.14.15,0,0-.12.14-.06,0-.11.12-.07.06a.94.94,0,0,1-.1.1.6.6,0,0,1-.08.08l-.08.09-.09.07-.06.08-.1.08-.06.07-.1.09-.05.06-.12.1,0,0-.13.12,0,0-.14.12h0s0,0,0,0l-.17.14a1.07,1.07,0,0,1-.16.14l-.17.14-.17.14-.17.14L58,56.1l-.17.14a1.09,1.09,0,0,0-.17.13l-.18.13-.06,0-.09.07-.1.07-.18.12-.18.13-.18.12-.18.12-.19.12-.18.12-.18.11-.19.12-.18.11-.09.05-.19.11-.19.1-.19.11-.19.1-.2.1-.19.1-.19.1-.2.1-.19.09-.13.06-.17.08-.2.09-.2.08-.2.09-.2.08-.2.08-.2.08-.2.08-.2.08-.21.08-.13,0-.19.07-.2.07-.21.06-.21.07-.2.06-.21.06-.21.06-.2.06-.21.06-.21.06-.16,0-.19,0-.21,0-.21.05-.21,0-.21,0-.21.05-.21,0-.21,0-.21,0-.22,0-.2,0-.16,0-.21,0-.22,0-.21,0-.21,0-.22,0-.21,0-.22,0-.21,0H45l-.21,0-.2,0H41l-.21,0-.21,0h-.22l-.21,0-.21,0-.22,0-.2,0-.17,0-.21,0-.21,0-.21,0-.21,0-.21,0-.21,0-.21,0-.21,0-.21,0-.21,0-.2,0-.17,0-.2-.05-.21,0-.11,0-.09,0-.13,0H36l-.15,0-.13,0-.17,0-.17,0-.17,0-.17,0-.17,0-.17,0-.17,0-.17-.05-.17,0-.15,0-.12,0-.16,0-.17-.05-.17,0-.16-.06-.17,0L33,59.47l-.17,0-.16-.06-.17-.06-.14-.06-.11,0-.16-.06-.16-.07L31.74,59l-.16-.07-.16-.07-.16-.07-.16-.07-.16-.08-.16-.07-.08,0-.15-.08-.15-.08-.16-.09-.15-.08-.16-.09L29.78,58l-.15-.09-.15-.09-.16-.09-.08,0-.13-.08-.15-.1-.14-.1-.15-.1-.15-.1-.14-.1L28.23,57l-.14-.1-.14-.1-.14-.11,0,0h0l-.12-.09,0,0-.11-.09,0,0-.1-.08-.05,0-.09-.07,0,0-.08-.06-.06-.06L27,56a.46.46,0,0,0-.07-.07l-.07-.05-.09-.08-.06,0-.09-.09-.05,0a.47.47,0,0,1-.1-.1s0,0,0,0l-.12-.1h0l-.1-.1-.13-.13-.14-.13-.12-.14-.13-.13a1.59,1.59,0,0,1-.13-.13l-.09-.1,0,0-.12-.13-.12-.14-.11-.12L25,54a1.34,1.34,0,0,0-.11-.14.76.76,0,0,1-.11-.14.76.76,0,0,1-.11-.14.76.76,0,0,1-.11-.14.76.76,0,0,1-.11-.14,1.71,1.71,0,0,1-.11-.14l-.11-.14a.71.71,0,0,0-.1-.14l-.05-.08L24,52.7l-.1-.14-.09-.15-.1-.15-.09-.14L23.49,52l-.09-.15-.09-.14a.64.64,0,0,0-.08-.14l0-.06c0-.06-.06-.1-.08-.15L23,51.18A.8.8,0,0,0,23,51l-.07-.15-.08-.15a1,1,0,0,0-.07-.15l-.07-.15a1,1,0,0,1-.07-.15l0-.06-.06-.14-.06-.16-.06-.15-.06-.16-.06-.15-.06-.16-.05-.15L22.1,49s0-.1-.05-.16a0,0,0,0,1,0,0,1.42,1.42,0,0,1-.05-.16,1.42,1.42,0,0,0,0-.16s0-.1,0-.16,0-.1,0-.15,0-.11-.05-.16a12330855011924.17,12330855011924.17,0,0,1-.08-.32.94.94,0,0,0,0-.16l0-.16v0l0-.16,0-.16,0-.16,0-.16a.78.78,0,0,0,0-.16l0-.17s0-.1,0-.16,0-.11,0-.16l0-.16v0c0-.05,0-.1,0-.15s0-.11,0-.16,0-.11,0-.16,0-.11,0-.17a.81.81,0,0,1,0-.16.86.86,0,0,1,0-.16.92.92,0,0,1,0-.16,1,1,0,0,0,0-.17v-.16a.92.92,0,0,1,0-.16v-.35a.92.92,0,0,0,0-.16v-.17a.86.86,0,0,0,0-.16.81.81,0,0,1,0-.16v-.17a7550022765815.51,7550022765815.51,0,0,0,0-.32c0-.06,0-.11,0-.17v0s0-.1,0-.15,0-.11,0-.16,0-.11,0-.16,0-.11,0-.16a1,1,0,0,0,0-.17l0-.16a.88.88,0,0,1,0-.16,1,1,0,0,0,0-.16l0-.17,0-.16,0-.16v0l0-.15c0-.06,0-.11,0-.16l0-.17a.75.75,0,0,0,0-.16s0-.1,0-.16a1.24,1.24,0,0,1,0-.16s0-.1,0-.16,0-.1,0-.16,0-.1,0-.16,0-.1.05-.16,0-.1,0-.16,0-.09,0-.14v0s0-.1.05-.16l.05-.15.06-.16a1,1,0,0,1,.05-.16.75.75,0,0,0,.05-.16l.06-.15.06-.16.06-.15.06-.16.06-.15.06-.16a.78.78,0,0,0,.05-.14h0a9456531370703.86,9456531370703.86,0,0,0,.14-.3A1.11,1.11,0,0,1,23,36.5a1,1,0,0,1,.07-.15,1,1,0,0,1,.07-.15l.07-.15.07-.15.08-.15.07-.15a1.09,1.09,0,0,0,.08-.15,1.09,1.09,0,0,1,.08-.15l.07-.13.08-.15a.64.64,0,0,0,.08-.14l.09-.15.09-.14.08-.15.09-.14.09-.14.09-.15.09-.14.09-.14.1-.14a1.48,1.48,0,0,0,.08-.13l.08-.12a.71.71,0,0,0,.1-.14,1.13,1.13,0,0,0,.1-.13l.11-.14a1.13,1.13,0,0,1,.1-.13l.1-.14a1.13,1.13,0,0,0,.1-.13l.11-.14.1-.13.11-.13.11-.14.1-.12.07-.09,0,0,.09-.1,0,0,.08-.1a.08.08,0,0,0,0,0l.08-.09,0,0,.07-.08.06-.05.06-.08a.34.34,0,0,0,.06-.06L26.7,31l.07-.07.05-.05a.6.6,0,0,1,.08-.08l0,0A.6.6,0,0,0,27,30.7l0,0,.09-.09,0,0,.1-.1h0a.3.3,0,0,0,.08-.08l.13-.11.13-.12a.69.69,0,0,1,.13-.11l.07-.06.06-.06.13-.11.13-.11.13-.11.13-.11.13-.11.14-.11.1-.08.13-.1.14-.1.14-.1.14-.1.14-.1.15-.1.14-.1a.71.71,0,0,0,.14-.1l.15-.09.14-.1.1-.06h0l.15-.09.15-.09.15-.09.15-.09a.8.8,0,0,0,.16-.08l.15-.09.16-.08.15-.08.16-.09.13-.07.16-.07.16-.08L32.3,27l.16-.07.17-.07.16-.08.16-.07.17-.06.16-.07h0l.15-.06.17-.06.17-.06.17-.06.17-.06.18-.06.17,0,.17-.06.18-.05h0L35,26l.17-.05.18,0,.18,0,.18,0h0Z"/><path class="cls-4" d="M68.75,2.66H38.67l-.23,0H38l-.23,0-.22,0-.23,0a11.07,11.07,0,0,0-1.13.11l-.22,0-.22,0-.22,0a1.46,1.46,0,0,0-.22,0l-.22,0-.22,0-.22,0-.22,0L34.2,4,34,4a1.52,1.52,0,0,0-.21,0l-.22,0-.21,0c-.38,0-.75.12-1.11.2l-.22,0-.21,0-.21,0-.21,0-.21,0L31,4.61l-.21,0-.21,0-.21,0-.2,0-.21.06-.2,0c-.37.09-.73.19-1.08.31l-.21.06-.2.06-.2.06-.2.06-.2.07-.2.06-.2.07-.2.06-.2.07-.19.07-.2.07L26.25,6l-.2.08a10.12,10.12,0,0,0-1,.4l-.19.07-.19.08-.2.08-.19.08-.18.08L23.87,7,23.68,7l-.19.09-.18.08-.19.09-.18.08-.19.09-.18.09-.18.09a10.36,10.36,0,0,0-1,.5l-.18.09L21,8.33a1,1,0,0,0-.17.1l-.18.09-.18.1a1,1,0,0,0-.17.1l-.18.09-.17.1L19.8,9a1,1,0,0,1-.17.1l-.17.11-.17.1-.17.1a10.75,10.75,0,0,0-.95.6l-.16.1-.17.11-.17.11-.16.11-.17.11-.16.11-.16.11-.16.11L16.7,11a.91.91,0,0,0-.16.11l-.16.12c-.06,0-.11.08-.16.11l-.16.12-.16.12-.15.12c-.31.21-.6.44-.89.68l-.15.12-.15.13-.15.12-.15.12a.93.93,0,0,0-.15.13l-.15.12-.15.13-.15.12-.15.13-.14.13-.15.13-.14.13-.14.13-.14.13-.15.13c-.28.25-.55.5-.81.77h0l-.13.12h0l-.12.12,0,0a.52.52,0,0,1-.11.1l0,0-.11.1,0,0-.1.09,0,.05-.08.08-.05.06-.08.07,0,.06-.07.07-.07.07-.06.06a.27.27,0,0,1-.07.08l0,.06a.6.6,0,0,1-.08.08l0,0-.09.1,0,0-.09.11,0,0-.09.11,0,0L10,17l0,0-.11.13h0c-.25.27-.49.55-.71.83a1.58,1.58,0,0,0-.12.15l-.13.15-.12.14-.12.15-.12.15-.12.15L8.28,19l-.11.15-.12.15-.11.15-.12.15-.11.15L7.6,20l-.12.15,0,0-.09.13-.11.15a10.77,10.77,0,0,0-.61.89l-.11.15c0,.06-.07.11-.1.16l-.11.16c0,.05-.07.1-.1.16s-.07.1-.1.16L6,22.24a.86.86,0,0,1-.1.16.86.86,0,0,1-.1.16l-.1.17-.09.16a.86.86,0,0,0-.1.16,1.4,1.4,0,0,1-.1.16l-.09.16-.1.17-.09.16-.09.16C5,23.92,5,24,5,24a9.27,9.27,0,0,0-.51.92l-.09.17c0,.05-.06.11-.08.16l-.09.17-.09.17a1.3,1.3,0,0,1-.08.17A1.19,1.19,0,0,0,4,26l-.09.17a.89.89,0,0,1-.08.17c0,.06,0,.12-.08.17s-.05.12-.08.17-.05.12-.08.17,0,.12-.08.17,0,.12-.07.17l-.08.18a.87.87,0,0,0-.07.17c0,.05-.05.11-.08.17a8.62,8.62,0,0,0-.39.95,1.22,1.22,0,0,0-.07.17,1.34,1.34,0,0,0-.07.18.87.87,0,0,0-.07.17l-.07.18c0,.05-.05.11-.07.17l-.06.18c0,.05,0,.11-.07.17L2.23,30l-.06.17-.06.18a1.27,1.27,0,0,0-.06.18.85.85,0,0,0-.06.17,1.27,1.27,0,0,0-.06.18l-.06.18-.06.18c0,.05,0,.11-.05.17a8.92,8.92,0,0,0-.29,1l-.06.18a1.21,1.21,0,0,1,0,.18,1.21,1.21,0,0,1-.05.18,1.21,1.21,0,0,1-.05.18c0,.06,0,.12,0,.18a1.21,1.21,0,0,0-.05.18c0,.06,0,.12,0,.18s0,.12,0,.18S1.05,34,1,34a1.16,1.16,0,0,1,0,.18c0,.07,0,.13,0,.19s0,.12,0,.18,0,.12,0,.18a1.16,1.16,0,0,1,0,.18l0,.19a8.1,8.1,0,0,0-.2,1l0,.17h0l0,.18a1.08,1.08,0,0,0,0,.19c0,.06,0,.12,0,.18s0,.12,0,.18a1.25,1.25,0,0,0,0,.19l0,.18,0,.18c0,.07,0,.13,0,.19l0,.18c0,.06,0,.13,0,.19s0,.12,0,.18a1.23,1.23,0,0,0,0,.19c0,.06,0,.12,0,.18s0,.13,0,.19a8.11,8.11,0,0,0-.09,1A1.11,1.11,0,0,1,.1,40c0,.06,0,.12,0,.18s0,.13,0,.19,0,.12,0,.19a1.09,1.09,0,0,1,0,.18A1.21,1.21,0,0,1,0,41v.18a1.21,1.21,0,0,0,0,.19,1.15,1.15,0,0,0,0,.19v.18a1.21,1.21,0,0,0,0,.19v.56a1.08,1.08,0,0,0,0,.18,8.18,8.18,0,0,0,0,1v.18c0,.06,0,.13,0,.19v.18a1.28,1.28,0,0,1,0,.19c0,.06,0,.12,0,.19s0,.12,0,.18,0,.13,0,.19,0,.12,0,.19,0,.12,0,.18,0,.13,0,.19a1.1,1.1,0,0,0,0,.18c0,.07,0,.13,0,.19a1.11,1.11,0,0,1,0,.19,1.1,1.1,0,0,1,0,.18c0,.33.06.65.11,1,0,.06,0,.12,0,.18l0,.19c0,.06,0,.12,0,.18l0,.19a1.13,1.13,0,0,0,0,.18,1.11,1.11,0,0,0,0,.19l0,.18a1.06,1.06,0,0,0,0,.19,1.13,1.13,0,0,0,0,.18l0,.19a1.16,1.16,0,0,0,0,.18l0,.19c0,.06,0,.12,0,.18a9.59,9.59,0,0,0,.2,1,1.06,1.06,0,0,1,0,.19c0,.06,0,.12,0,.18a1.16,1.16,0,0,0,0,.18c0,.06,0,.13,0,.19s0,.12.05.18a1.21,1.21,0,0,0,0,.18c0,.06,0,.12,0,.19a1.21,1.21,0,0,1,.05.18,1.21,1.21,0,0,1,.05.18l.06.18a1.21,1.21,0,0,0,0,.18,1.8,1.8,0,0,1,.05.19l.06.18.06.18a4,4,0,0,0,.16.49l0-.1c0-.06,0-.12.05-.18l.06-.18L1.93,53A1.27,1.27,0,0,1,2,52.78a1.77,1.77,0,0,1,.06-.17,1.27,1.27,0,0,1,.06-.18l.06-.18.06-.17.06-.18c0-.06,0-.11.07-.17l.06-.18c0-.06.05-.11.07-.17l.07-.18A1.22,1.22,0,0,1,2.63,51a.87.87,0,0,1,.07-.17,1.34,1.34,0,0,1,.07-.18,8.62,8.62,0,0,1,.39-1s0-.11.08-.17a.87.87,0,0,1,.07-.17c0-.06,0-.12.08-.17L3.46,49s0-.11.08-.17,0-.11.08-.17,0-.11.08-.17,0-.11.08-.17a1.19,1.19,0,0,0,.08-.16L4,48A.89.89,0,0,1,4,47.86a1.3,1.3,0,0,0,.08-.17l.09-.17.09-.16c0-.06.06-.11.08-.17L4.46,47A9.27,9.27,0,0,1,5,46.1a1.29,1.29,0,0,1,.09-.16l.09-.17.09-.16c0-.06.06-.11.1-.16l.09-.17a1.4,1.4,0,0,0,.1-.16,1.4,1.4,0,0,1,.1-.16l.09-.16.1-.16.1-.16.1-.16.11-.16c0-.06.07-.11.1-.16l.1-.16.11-.16.1-.15.11-.16c.19-.3.39-.6.61-.89l.11-.15.11-.16L7.6,42l.11-.15.11-.16.12-.15.11-.15.12-.15.11-.15L8.4,41l.12-.15.12-.15.12-.15.12-.14L9,40.22a.81.81,0,0,1,.12-.14c.22-.29.46-.57.71-.84h0L10,39.1h0l.1-.12,0,0,.09-.11,0,0a.81.81,0,0,0,.09-.1l0,0,.09-.1,0,0,.08-.09,0,0,.07-.08.06-.06.07-.08.07-.06,0-.07L11,38l.05-.06a.6.6,0,0,0,.08-.08.1.1,0,0,0,0,0l.1-.09,0,0,.11-.09,0,0a1.14,1.14,0,0,0,.11-.11l0,0,.12-.11v0l.13-.12h0a9.74,9.74,0,0,1,.81-.77l.15-.14.14-.13.14-.13.14-.13.15-.13a.86.86,0,0,0,.14-.13l.15-.12.15-.13L14,35.2l.15-.12.15-.13.15-.12.15-.12a1.58,1.58,0,0,1,.15-.12l.15-.13c.29-.24.58-.47.89-.68l.15-.12.16-.12a.91.91,0,0,1,.16-.11l.16-.12.16-.12.16-.11a.91.91,0,0,1,.16-.11l.16-.12.16-.11.16-.11.17-.11.16-.11.17-.11.17-.11.16-.1a10.63,10.63,0,0,1,.95-.59l.17-.11.17-.1.17-.1.17-.1L20,31a1,1,0,0,1,.17-.1l.18-.1a1,1,0,0,1,.17-.1l.18-.1.18-.09.17-.1.18-.09.08,0,.1-.05c.33-.18.66-.35,1-.5l.18-.09.18-.09.19-.09.18-.08.19-.09.18-.08.19-.09.19-.08.19-.08.18-.08.19-.08.2-.08.19-.07.19-.08c.34-.15.69-.28,1-.4l.2-.07.19-.08.2-.07.19-.07.2-.06.2-.07.2-.07.2-.06.2-.07.2-.06.2-.06.2-.06.21-.06a9.55,9.55,0,0,1,1.08-.3l.2-.06.21-.05.2-.06.21,0,.21-.05.21-.05.21-.05.21-.05.21,0,.21-.05.21,0,.22,0a9.9,9.9,0,0,1,1.11-.21l.21,0,.22,0,.21,0,.22,0,.22,0,.22,0,.22,0a1.46,1.46,0,0,1,.22,0l.22,0,.22,0,.22,0h0l.14,0,.18,0,.18,0,.19,0h0a1,1,0,0,1,.17,0l.18,0,.19,0,.19,0,.18,0,.19,0,.19,0,.19,0,.19,0h.44l.19,0h3.75a1.2,1.2,0,0,0,.19,0h3a1.2,1.2,0,0,1,.19,0h.92a1.21,1.21,0,0,0,.19,0h2.59a1.2,1.2,0,0,0,.19,0h.18a1.21,1.21,0,0,1,.19,0h2.41a1.08,1.08,0,0,0,.18,0h2.6a1.08,1.08,0,0,0,.18,0h2.59a1.2,1.2,0,0,0,.19,0h.19a1.08,1.08,0,0,1,.18,0h.93a1.08,1.08,0,0,0,.18,0h2.6a1.08,1.08,0,0,0,.18,0h.19a1.08,1.08,0,0,1,.18,0h2.41a1.21,1.21,0,0,0,.19,0H68.1a1.2,1.2,0,0,0,.19,0H69a13.43,13.43,0,0,0,3.84-.41,12.32,12.32,0,0,0,5.89-3.38,10.89,10.89,0,0,0-1-16.2A13,13,0,0,0,68.75,2.66Z"/><path class="cls-5" d="M68.9,16H36A25.47,25.47,0,0,0,11.17,38.54c-.93,7.19-.19,13,4.51,19.75s17.51,18.35,35.94,9C66,60.06,65.77,43.57,65.77,43.57l-23.31,0s-6.89.27-7.41-2.31a5.62,5.62,0,0,0-.14.82,8.12,8.12,0,0,0,1.59,5.63A8.68,8.68,0,0,0,37.58,49a9.77,9.77,0,0,0,.9.69A8.09,8.09,0,0,0,42.82,51h13.7s0,0,0,0a1,1,0,0,0-.07.15,1.09,1.09,0,0,0-.08.15l-.07.13a.91.91,0,0,0-.07.14l-.08.14-.09.15s0,.09-.08.14l-.09.14-.08.14-.09.14-.09.14a.36.36,0,0,1-.07.1l-.08.13-.1.14a1.13,1.13,0,0,1-.1.13l-.09.13-.1.14a5126657525856,5126657525856,0,0,0-.3.39.27.27,0,0,0-.07.08h0l-.08.11,0,0-.08.09s0,0,0,0l-.07.09,0,0-.06.08-.06.05,0,.07-.07.06,0,.06-.08.07a.1.1,0,0,1,0,0,.6.6,0,0,1-.08.08l0,0-.09.09,0,0-.06.06-.12.11-.12.11-.12.11-.12.11-.13.11-.12.11-.12.11-.13.11-.13.1-.08.07-.12.09-.13.11-.13.09-.1.08,0,0-.13.1-.13.1-.14.1-.14.09-.13.1-.14.09-.1.06-.13.09-.14.08-.14.09-.15.09-.14.08-.15.09-.14.08L49.9,58l-.15.08-.14.08-.13.07-.13.07-.15.07-.15.07-.15.08-.15.07-.16.07-.15.07-.16.07-.15.06-.16.07-.15.07-.13,0-.15.06-.16.06-.16,0-.16.06-.16.06-.16,0-.16.06-.16,0-.17.06-.16,0-.16,0-.13,0-.16,0-.17,0-.16,0-.17,0-.16.05-.17,0-.17,0-.17,0-.16,0-.17,0-.17,0-.14,0-.16,0-.17,0-.17,0-.17,0-.17,0-.17,0-.17,0-.18,0-.17,0-.17,0-.17,0h-.15l-.15,0h-.18l-.17,0H37.76l-.17,0-.17,0-.17,0-.18,0-.17,0-.17,0-.18,0-.17,0h0l0,0h0l-.09,0-.13,0-.08,0-.15,0-.13,0-.18,0-.17,0-.17,0-.17,0-.17,0-.17,0-.17,0-.16,0-.17,0-.16,0-.11,0-.17,0-.17-.05-.16,0-.17,0-.16-.06L33,59.48l-.16-.06-.17-.06-.16-.06-.15,0-.1,0-.17-.07-.16-.07L31.73,59l-.16-.07-.16-.07-.16-.08-.16-.07-.16-.07-.15-.08-.09,0-.15-.08-.15-.08-.16-.08-.15-.09-.15-.08L29.77,58l-.15-.09-.15-.09-.15-.09-.08,0-.14-.08a.71.71,0,0,0-.14-.1l-.15-.1-.15-.1-.14-.1-.15-.1-.14-.1-.14-.11-.14-.1-.14-.11s0,0,0,0h0l-.12-.09,0,0-.11-.08,0,0-.1-.07,0,0-.09-.07,0,0s-.06,0-.08-.07l-.06,0L27,56,26.9,56l-.07-.06-.08-.08-.06,0-.1-.09-.05,0a.47.47,0,0,0-.1-.1l0,0-.11-.11h0a.94.94,0,0,1-.1-.1L26,55.18l-.13-.13-.13-.13-.13-.14-.13-.13-.09-.09,0,0-.13-.14-.12-.13-.1-.12A.7.7,0,0,1,25,54l-.12-.13a.76.76,0,0,0-.11-.14,1.71,1.71,0,0,0-.11-.14,6754471410496.93,6754471410496.93,0,0,0-.22-.28.76.76,0,0,0-.11-.14l-.1-.15a1.71,1.71,0,0,1-.11-.14L24,52.84,24,52.7l-.09-.14-.1-.15-.09-.14-.09-.15a.71.71,0,0,0-.1-.14l-.08-.15-.09-.15-.08-.14,0-.06a7682703114326.32,7682703114326.32,0,0,1-.16-.3L23,51l-.08-.15-.07-.15s0-.11-.08-.16a1,1,0,0,0-.07-.15,1,1,0,0,0-.07-.15s0,0,0-.06l-.06-.14-.07-.15a1,1,0,0,0-.06-.16l-.06-.15-.06-.16a.88.88,0,0,0-.05-.15l-.06-.16s0-.1,0-.16L22,48.83v0a1.42,1.42,0,0,0-.05-.16c0-.05,0-.1,0-.15s0-.11-.05-.16,0-.11,0-.16l0-.16a.94.94,0,0,1,0-.16,12330855011934.47,12330855011934.47,0,0,0-.08-.32c0-.05,0-.1,0-.15v0a1.1,1.1,0,0,0,0-.16l0-.16,0-.16a.88.88,0,0,0,0-.16l0-.16c0-.06,0-.11,0-.16l0-.16c0-.06,0-.11,0-.17s0-.1,0-.16a0,0,0,0,0,0,0c0-.05,0-.1,0-.15s0-.11,0-.17,0-.11,0-.16,0-.11,0-.16,0-.11,0-.16,0-.11,0-.17a.86.86,0,0,0,0-.16v-.16a1,1,0,0,1,0-.17v-.18c0-.06,0-.11,0-.16v-.33c0-.06,0-.11,0-.16v-.17a.86.86,0,0,0,0-.16s0-.11,0-.16,0-.11,0-.17,0-.11,0-.16,0-.11,0-.16v0s0-.1,0-.15,0-.11,0-.17a.78.78,0,0,0,0-.16.88.88,0,0,0,0-.16l0-.16a1,1,0,0,1,0-.17.78.78,0,0,0,0-.16l0-.16a.88.88,0,0,0,0-.16l0-.17,0-.16v0s0-.1,0-.15l0-.16a.94.94,0,0,1,0-.16l0-.16a36992565035782.83,36992565035782.83,0,0,1,.12-.48,1.24,1.24,0,0,0,0-.16c0-.06,0-.11,0-.16s0-.11,0-.16,0-.11,0-.16a1.21,1.21,0,0,0,.05-.14v0a.88.88,0,0,0,0-.15l.06-.16c0-.05,0-.11.05-.16a.75.75,0,0,0,0-.16l.06-.15a1,1,0,0,0,.05-.16l.06-.16.06-.15.06-.16.06-.15.06-.16.06-.13v0a9456531370703.89,9456531370703.89,0,0,0,.14-.3l.07-.15.07-.15.07-.16a1,1,0,0,0,.07-.15l.08-.15.07-.15.08-.15.07-.15a1.09,1.09,0,0,0,.08-.15s.05-.08.07-.13l.08-.14.09-.15.08-.14.09-.15.09-.14.09-.15a.64.64,0,0,0,.08-.14,1.1,1.1,0,0,0,.09-.14l.1-.15.09-.14.09-.14.09-.12.08-.12a.71.71,0,0,1,.1-.14l.1-.14a1.13,1.13,0,0,1,.1-.13l.1-.14.1-.14.11-.13.1-.13.11-.14a1.47,1.47,0,0,0,.1-.13l.11-.13.11-.13a.27.27,0,0,1,.07-.08l0,0,.09-.1,0,0,.09-.1,0,0,.07-.09.05-.05.07-.08.05-.05.06-.07.07-.06.05-.07.07-.06,0-.06.08-.07,0-.05.09-.08,0,0a.76.76,0,0,1,.09-.09l0,0,.1-.09,0,0,.08-.07.12-.12.13-.11.13-.12.07-.06.06-.05.13-.12.13-.11a.69.69,0,0,0,.13-.11l.14-.11.13-.11.13-.11.11-.08.13-.09L29,29l.14-.1.15-.1.14-.1.14-.1a.71.71,0,0,0,.14-.1l.15-.09.14-.1.15-.1.1-.06h0l.15-.09.15-.09.16-.09.15-.08.15-.09.15-.08.16-.09.15-.08.16-.08.14-.07.15-.08.16-.07L32.3,27l.16-.07.16-.07.16-.07.17-.07.16-.07.17-.07h0l.16-.06.16-.06.17-.06.18-.06.17-.06.17-.05.17-.06.17-.05.18-.06h0L35,26l.18,0,.18,0,.17,0,.18,0h0l.21,0,.22,0c.37-.05.75-.09,1.13-.11l.22,0h.23l.22,0h.23l.23,0h7.79a1.2,1.2,0,0,0,.19,0h.18a1.2,1.2,0,0,1,.19,0h2.4a1.2,1.2,0,0,0,.19,0H52a1.2,1.2,0,0,0,.19,0h2.59a1.21,1.21,0,0,0,.19,0h.18a1.2,1.2,0,0,1,.19,0h2.41a1.08,1.08,0,0,0,.18,0H59a1.08,1.08,0,0,0,.18,0h.19a1.08,1.08,0,0,1,.18,0H62a1.2,1.2,0,0,0,.19,0h2.59a1.2,1.2,0,0,0,.19,0h2.59a1.08,1.08,0,0,0,.18,0H69a13.07,13.07,0,0,0,3.84-.4,12.41,12.41,0,0,0,5.9-3.39,11,11,0,0,0,1.6-2.12C77.25,16,68.9,16,68.9,16ZM65.69,44a1.77,1.77,0,0,0,0-.2,1.77,1.77,0,0,1,0,.2,1.42,1.42,0,0,1,0,.2A1.42,1.42,0,0,0,65.69,44Zm-.22,1v0l0,.2Zm-.28,1,.06-.2-.06.2-.06.2ZM64,49l.06-.13L64,49a1.14,1.14,0,0,0-.1.19A1.14,1.14,0,0,1,64,49Zm-.62,1.11.11-.17-.11.17-.05.09Zm-1.67,2.37.14-.18-.14.18a.39.39,0,0,0-.08.1A.39.39,0,0,1,61.67,52.52Zm-1.93,2.07.1-.09-.1.09-.05.06ZM58.19,56l.07-.07-.07.07L58,56.1Zm-2.68,1.85.1-.06-.1.06-.19.1Zm-1.34.71.19-.1.07,0-.07,0-.19.1-.19.1ZM50.53,60l.21-.07-.21.07-.21.06Zm-4.71,1-.22,0,.22,0,.21,0Z"/></g></svg>